<svg width="38" height="41" viewBox="0 0 38 41" fill="none" xmlns="http://www.w3.org/2000/svg">
<path d="M18.75 0.832214C8.4 0.832214 0 9.78825 0 20.8234C0 31.8585 8.4 40.8145 18.75 40.8145C29.1 40.8145 37.5 31.8585 37.5 20.8234C37.5 9.78825 29.1 0.832214 18.75 0.832214ZM18.75 6.82956C21.8625 6.82956 24.375 9.50838 24.375 12.8269C24.375 16.1454 21.8625 18.8243 18.75 18.8243C15.6375 18.8243 13.125 16.1454 13.125 12.8269C13.125 9.50838 15.6375 6.82956 18.75 6.82956ZM18.75 35.217C14.0625 35.217 9.91875 32.6581 7.5 28.7799C7.55625 24.8016 15 22.6226 18.75 22.6226C22.4813 22.6226 29.9438 24.8016 30 28.7799C27.5813 32.6581 23.4375 35.217 18.75 35.217Z" fill="#767676"/>
</svg>
